<?xml version="1.0" encoding="utf-8"?>
<!-- Generator: Adobe Illustrator 23.0.3, SVG Export Plug-In . SVG Version: 6.00 Build 0)  -->
<svg version="1.1" id="Layer_1" xmlns="http://www.w3.org/2000/svg" xmlns:xlink="http://www.w3.org/1999/xlink" x="0px" y="0px"
	 viewBox="0 0 480 480" style="enable-background:new 0 0 480 480;" xml:space="preserve">
<style type="text/css">
	.st0{fill:#6CCA93;}
</style>
<path class="st0" d="M80,432h152v16H80V432z"/>
<path class="st0" d="M248,432h152v16H248V432z"/>
<path class="st0" d="M88,384h304V176H88V384z M104,192h272v176H104V192z"/>
<path class="st0" d="M352,232h-32c-4.4,0-8,3.6-8,8v80c0,4.4,3.6,8,8,8h32c4.4,0,8-3.6,8-8v-80C360,235.6,356.4,232,352,232z
	 M344,312h-16v-64h16V312z"/>
<path class="st0" d="M272,112c0-17.7-14.3-32-32-32s-32,14.3-32,32s14.3,32,32,32S272,129.7,272,112z M240,128c-8.8,0-16-7.2-16-16
	s7.2-16,16-16c1.4,0,2.8,0.2,4.1,0.6l-9.7,9.7l11.3,11.3l9.7-9.7c0.4,1.3,0.6,2.7,0.6,4.1C256,120.8,248.8,128,240,128z"/>
<path class="st0" d="M288,104h16v16h-16V104z"/>
<path class="st0" d="M320,104h16v16h-16V104z"/>
<path class="st0" d="M80,96h80v16H80V96z"/>
<path class="st0" d="M352,104h16v16h-16V104z"/>
<path class="st0" d="M384,104h16v16h-16V104z"/>
<path class="st0" d="M136,304h-16v48h32v-16h-16V304z"/>
<path class="st0" d="M88,64H56c-4.4,0-8,3.6-8,8v408h384V72c0-4.4-3.6-8-8-8H248v-8c0-5.9-2.2-11.6-6.2-16c6.4-7,8-17.1,4.2-25.8
	S233.5,0,224,0H112c-9.5,0-18.1,5.5-21.9,14.2S87.8,33,94.2,40c-4,4.4-6.2,10.1-6.2,16V64z M64,80h112v64H64V80z M416,464H64v-48
	h352V464z M64,400V160h352v240H64z M416,80v64H192V80H416z M104,64v-8c0-4.4,3.6-8,8-8h112c4.4,0,8,3.6,8,8v8H104z M112,16h112
	c4.4,0,8,3.6,8,8s-3.6,8-8,8H112c-4.4,0-8-3.6-8-8S107.6,16,112,16z"/>
</svg>
