<?xml version="1.0" encoding="utf-8"?>
<!-- Generator: Adobe Illustrator 23.0.3, SVG Export Plug-In . SVG Version: 6.00 Build 0)  -->
<svg version="1.1" id="Capa_1" xmlns="http://www.w3.org/2000/svg" xmlns:xlink="http://www.w3.org/1999/xlink" x="0px" y="0px"
	 viewBox="0 0 512 512" style="enable-background:new 0 0 512 512;" xml:space="preserve">
<style type="text/css">
	.st0{fill:#6CCA93;}
</style>
<g>
	<g>
		<path class="st0" d="M112,401.4c-8-8-18.6-12.4-30-12.4c-6.7,0-13.1,1.5-18.9,4.5C6,312.6,5.8,201.7,63.6,120.7
			c3.2-4.5,2.2-10.7-2.3-13.9s-10.7-2.2-13.9,2.3C15.4,153.8-0.9,206.6,0,261.8c0.9,52.5,17.4,102.3,47.8,144.6
			c-12.1,16.6-10.6,40,4.3,54.9c8.3,8.3,19.1,12.4,30,12.4s21.7-4.1,30-12.4C128.5,444.8,128.5,417.9,112,401.4z M97.9,447.2
			c-8.7,8.7-22.9,8.7-31.6,0c-8.7-8.7-8.7-22.9,0-31.6c4.2-4.2,9.8-6.6,15.8-6.6s11.6,2.3,15.8,6.6
			C106.6,424.3,106.6,438.4,97.9,447.2z"/>
	</g>
</g>
<g>
	<g>
		<path class="st0" d="M408,451.1c-3.2-4.5-9.5-5.5-14-2.2c-28.6,20.7-60.7,34.3-95.5,40.7c-8.1,1.5-16.3-0.7-22.6-5.9
			c-6.2-5.2-9.8-12.8-9.8-20.9v-73.3h0.9c11.6,0,21-9.4,21-21v-16.9c33.9-12.9,58-45.8,58-84.1v-47.3c16.1-4.4,28-19.2,28-36.7
			c0-19.3-14.4-35.2-33-37.7V83.4c0-16.5-13.5-30-30-30s-30,13.5-30,30v62h-50v-62c0-16.5-13.5-30-30-30s-30,13.5-30,30v62.3
			c-18.6,2.5-33,18.4-33,37.7c0,17.5,11.9,32.3,28,36.7v47.3c0,38.4,24.1,71.2,58,84.1v16.9c0,11.6,9.4,21,21,21h1.1v73.3
			c0,14.1,6.2,27.3,17,36.3c8.6,7.2,19.4,11,30.4,11c2.8,0,5.7-0.3,8.6-0.8c37.8-6.9,72.6-21.7,103.6-44.1
			C410.2,461.9,411.2,455.6,408,451.1z M301,83.4c0-5.5,4.5-10,10-10s10,4.5,10,10v62h-20V83.4z M191,83.4c0-5.5,4.5-10,10-10
			s10,4.5,10,10v62h-20V83.4z M158,183.4c0-9.9,8.1-18,18-18h160c9.9,0,18,8.1,18,18s-8.1,18-18,18H176
			C166.1,201.4,158,193.3,158,183.4z M186,267.4v-46h140v46c0,38.6-31.4,70-70,70S186,306,186,267.4z M256.4,369.4
			c-0.1,0-0.2,0-0.3,0s-0.2,0-0.3,0H245c-0.6,0-1-0.4-1-1v-11.8c3.9,0.5,7.9,0.8,12,0.8c4.1,0,8.1-0.3,12-0.8v11.8c0,0.6-0.4,1-1,1
			H256.4z"/>
	</g>
</g>
<g>
	<g>
		<path class="st0" d="M436.8,424c-4-3.7-10.1-3.6-13.9,0.3c-0.1,0.1-0.2,0.2-0.2,0.2c-3.8,4-3.5,10.4,0.5,14.1
			c1.9,1.8,4.4,2.7,6.8,2.7c2.6,0,5.2-1,7.1-3c0.1-0.1,0.2-0.2,0.2-0.2C441,434.1,440.8,427.8,436.8,424z"/>
	</g>
</g>
<g>
	<g>
		<path class="st0" d="M511.3,238.7c-4.5-61.2-30.8-118.9-74.3-162.3C394.3,33.7,337.3,7.5,276.4,2.8c-60.1-4.7-120,11.6-168.6,46
			c-4.5,3.2-5.6,9.4-2.4,13.9c3.2,4.5,9.4,5.6,13.9,2.4c92.9-65.7,223.4-54.7,303.5,25.5c82.9,82.9,92.9,211.5,23.8,306
			c-3.3,4.5-2.3,10.7,2.2,14c1.8,1.3,3.8,1.9,5.9,1.9c3.1,0,6.1-1.4,8.1-4.1C498.5,359.5,515.7,299.3,511.3,238.7z"/>
	</g>
</g>
<g>
	<g>
		<path class="st0" d="M87.9,77.5c-3.9-3.9-10.3-3.9-14.1,0.1l-0.2,0.2c-3.9,3.9-3.9,10.3,0.1,14.1c1.9,1.9,4.5,2.9,7,2.9
			c2.6,0,5.1-1,7.1-3l0.2-0.2C91.9,87.8,91.8,81.4,87.9,77.5z"/>
	</g>
</g>
<g>
	<g>
		<path class="st0" d="M278.5,263.7c-1.8-3.1-5.1-5-8.6-5h-7.1l13.2-16.6c3.4-4.3,2.7-10.6-1.6-14c-4.3-3.4-10.6-2.7-14,1.6
			l-26,32.8c-2.4,3-2.8,7.1-1.2,10.6c1.7,3.5,5.2,5.6,9,5.6h10.7l-12.2,21.6c-2.7,4.8-1,10.9,3.8,13.6c1.6,0.9,3.2,1.3,4.9,1.3
			c3.5,0,6.9-1.8,8.7-5.1l20.7-36.5C280.4,270.6,280.3,266.8,278.5,263.7z"/>
	</g>
</g>
</svg>
