<svg width="104" height="103" viewBox="0 0 104 103" fill="none" xmlns="http://www.w3.org/2000/svg">
<g filter="url(#filter0_d)">
<rect x="6.45312" y="6" width="83.4089" height="83" rx="15" fill="white"/>
</g>
<path d="M30.456 27.048C30.04 27.048 29.64 26.9813 29.256 26.848C28.8773 26.7147 28.584 26.5387 28.376 26.32L28.608 25.864C28.8107 26.0667 29.08 26.232 29.416 26.36C29.752 26.4827 30.0987 26.544 30.456 26.544C30.9573 26.544 31.3333 26.4533 31.584 26.272C31.8347 26.0853 31.96 25.8453 31.96 25.552C31.96 25.328 31.8907 25.1493 31.752 25.016C31.6187 24.8827 31.4533 24.7813 31.256 24.712C31.0587 24.6373 30.784 24.5573 30.432 24.472C30.0107 24.3653 29.6747 24.264 29.424 24.168C29.1733 24.0667 28.9573 23.9147 28.776 23.712C28.6 23.5093 28.512 23.2347 28.512 22.888C28.512 22.6053 28.5867 22.3493 28.736 22.12C28.8853 21.8853 29.1147 21.6987 29.424 21.56C29.7333 21.4213 30.1173 21.352 30.576 21.352C30.896 21.352 31.208 21.3973 31.512 21.488C31.8213 21.5733 32.088 21.6933 32.312 21.848L32.112 22.32C31.8773 22.1653 31.6267 22.0507 31.36 21.976C31.0933 21.896 30.832 21.856 30.576 21.856C30.0853 21.856 29.7147 21.952 29.464 22.144C29.2187 22.3307 29.096 22.5733 29.096 22.872C29.096 23.096 29.1627 23.2773 29.296 23.416C29.4347 23.5493 29.6053 23.6533 29.808 23.728C30.016 23.7973 30.2933 23.8747 30.64 23.96C31.0507 24.0613 31.3813 24.1627 31.632 24.264C31.888 24.36 32.104 24.5093 32.28 24.712C32.456 24.9093 32.544 25.1787 32.544 25.52C32.544 25.8027 32.4667 26.0613 32.312 26.296C32.1627 26.5253 31.9307 26.7093 31.616 26.848C31.3013 26.9813 30.9147 27.048 30.456 27.048ZM35.9299 26.744C35.8232 26.84 35.6899 26.9147 35.5299 26.968C35.3752 27.016 35.2125 27.04 35.0419 27.04C34.6472 27.04 34.3432 26.9333 34.1299 26.72C33.9165 26.5067 33.8099 26.2053 33.8099 25.816V23.272H33.0579V22.792H33.8099V21.872H34.3779V22.792H35.6579V23.272H34.3779V25.784C34.3779 26.0347 34.4392 26.2267 34.5619 26.36C34.6899 26.488 34.8712 26.552 35.1059 26.552C35.2232 26.552 35.3352 26.5333 35.4419 26.496C35.5539 26.4587 35.6499 26.4053 35.7299 26.336L35.9299 26.744ZM38.5354 27.04C38.1301 27.04 37.7648 26.9493 37.4394 26.768C37.1141 26.5813 36.8581 26.3253 36.6714 26C36.4848 25.6747 36.3914 25.3067 36.3914 24.896C36.3914 24.4853 36.4848 24.1173 36.6714 23.792C36.8581 23.4667 37.1141 23.2133 37.4394 23.032C37.7648 22.8507 38.1301 22.76 38.5354 22.76C38.9408 22.76 39.3061 22.8507 39.6314 23.032C39.9568 23.2133 40.2101 23.4667 40.3914 23.792C40.5781 24.1173 40.6714 24.4853 40.6714 24.896C40.6714 25.3067 40.5781 25.6747 40.3914 26C40.2101 26.3253 39.9568 26.5813 39.6314 26.768C39.3061 26.9493 38.9408 27.04 38.5354 27.04ZM38.5354 26.536C38.8341 26.536 39.1008 26.4693 39.3354 26.336C39.5754 26.1973 39.7621 26.0027 39.8954 25.752C40.0288 25.5013 40.0954 25.216 40.0954 24.896C40.0954 24.576 40.0288 24.2907 39.8954 24.04C39.7621 23.7893 39.5754 23.5973 39.3354 23.464C39.1008 23.3253 38.8341 23.256 38.5354 23.256C38.2368 23.256 37.9674 23.3253 37.7274 23.464C37.4928 23.5973 37.3061 23.7893 37.1674 24.04C37.0341 24.2907 36.9674 24.576 36.9674 24.896C36.9674 25.216 37.0341 25.5013 37.1674 25.752C37.3061 26.0027 37.4928 26.1973 37.7274 26.336C37.9674 26.4693 38.2368 26.536 38.5354 26.536ZM40.1034 22.248H40.4794L36.9434 27.568H36.5594L40.1034 22.248ZM45.2499 22.792L43.3779 27H42.7939L40.9299 22.792H41.5219L43.0979 26.376L44.6899 22.792H45.2499ZM47.1309 27.04C46.7896 27.04 46.4616 26.992 46.1469 26.896C45.8376 26.7947 45.5949 26.6693 45.4189 26.52L45.6749 26.072C45.8509 26.2107 46.0723 26.3253 46.3389 26.416C46.6056 26.5013 46.8829 26.544 47.1709 26.544C47.5549 26.544 47.8376 26.4853 48.0189 26.368C48.2056 26.2453 48.2989 26.0747 48.2989 25.856C48.2989 25.7013 48.2483 25.5813 48.1469 25.496C48.0456 25.4053 47.9176 25.3387 47.7629 25.296C47.6083 25.248 47.4029 25.2027 47.1469 25.16C46.8056 25.096 46.5309 25.032 46.3229 24.968C46.1149 24.8987 45.9363 24.784 45.7869 24.624C45.6429 24.464 45.5709 24.2427 45.5709 23.96C45.5709 23.608 45.7176 23.32 46.0109 23.096C46.3043 22.872 46.7123 22.76 47.2349 22.76C47.5069 22.76 47.7789 22.7973 48.0509 22.872C48.3229 22.9413 48.5469 23.0347 48.7229 23.152L48.4749 23.608C48.1283 23.368 47.7149 23.248 47.2349 23.248C46.8723 23.248 46.5976 23.312 46.4109 23.44C46.2296 23.568 46.1389 23.736 46.1389 23.944C46.1389 24.104 46.1896 24.232 46.2909 24.328C46.3976 24.424 46.5283 24.496 46.6829 24.544C46.8376 24.5867 47.0509 24.632 47.3229 24.68C47.6589 24.744 47.9283 24.808 48.1309 24.872C48.3336 24.936 48.5069 25.0453 48.6509 25.2C48.7949 25.3547 48.8669 25.568 48.8669 25.84C48.8669 26.208 48.7123 26.5013 48.4029 26.72C48.0989 26.9333 47.6749 27.04 47.1309 27.04ZM53.709 22.792V27H53.165V26.232C53.0157 26.488 52.8103 26.688 52.549 26.832C52.2877 26.9707 51.989 27.04 51.653 27.04C51.1037 27.04 50.669 26.888 50.349 26.584C50.0343 26.2747 49.877 25.824 49.877 25.232V22.792H50.445V25.176C50.445 25.6187 50.5543 25.9547 50.773 26.184C50.9917 26.4133 51.3037 26.528 51.709 26.528C52.1517 26.528 52.501 26.3947 52.757 26.128C53.013 25.856 53.141 25.48 53.141 25V22.792H53.709ZM59.1958 22.792V26.488C59.1958 27.2027 59.0198 27.7307 58.6678 28.072C58.3211 28.4187 57.7958 28.592 57.0918 28.592C56.7025 28.592 56.3318 28.5333 55.9798 28.416C55.6331 28.304 55.3505 28.1467 55.1318 27.944L55.4198 27.512C55.6225 27.6933 55.8678 27.8347 56.1558 27.936C56.4491 28.0373 56.7558 28.088 57.0758 28.088C57.6091 28.088 58.0011 27.9627 58.2518 27.712C58.5025 27.4667 58.6278 27.0827 58.6278 26.56V26.024C58.4518 26.2907 58.2198 26.4933 57.9318 26.632C57.6491 26.7707 57.3345 26.84 56.9878 26.84C56.5931 26.84 56.2331 26.7547 55.9078 26.584C55.5878 26.408 55.3345 26.1653 55.1478 25.856C54.9665 25.5413 54.8758 25.1867 54.8758 24.792C54.8758 24.3973 54.9665 24.0453 55.1478 23.736C55.3345 23.4267 55.5878 23.1867 55.9078 23.016C56.2278 22.8453 56.5878 22.76 56.9878 22.76C57.3451 22.76 57.6678 22.832 57.9558 22.976C58.2438 23.12 58.4758 23.328 58.6518 23.6V22.792H59.1958ZM57.0438 26.336C57.3478 26.336 57.6225 26.272 57.8678 26.144C58.1131 26.0107 58.3025 25.8267 58.4358 25.592C58.5745 25.3573 58.6438 25.0907 58.6438 24.792C58.6438 24.4933 58.5745 24.2293 58.4358 24C58.3025 23.7653 58.1131 23.584 57.8678 23.456C57.6278 23.3227 57.3531 23.256 57.0438 23.256C56.7398 23.256 56.4651 23.32 56.2198 23.448C55.9798 23.576 55.7905 23.7573 55.6518 23.992C55.5185 24.2267 55.4518 24.4933 55.4518 24.792C55.4518 25.0907 55.5185 25.3573 55.6518 25.592C55.7905 25.8267 55.9798 26.0107 56.2198 26.144C56.4651 26.272 56.7398 26.336 57.0438 26.336ZM64.4482 25.072H60.9282C60.9602 25.5093 61.1282 25.864 61.4322 26.136C61.7362 26.4027 62.1202 26.536 62.5842 26.536C62.8455 26.536 63.0855 26.4907 63.3042 26.4C63.5229 26.304 63.7122 26.1653 63.8722 25.984L64.1922 26.352C64.0055 26.576 63.7709 26.7467 63.4882 26.864C63.2109 26.9813 62.9042 27.04 62.5682 27.04C62.1362 27.04 61.7522 26.9493 61.4162 26.768C61.0855 26.5813 60.8269 26.3253 60.6402 26C60.4535 25.6747 60.3602 25.3067 60.3602 24.896C60.3602 24.4853 60.4482 24.1173 60.6242 23.792C60.8055 23.4667 61.0509 23.2133 61.3602 23.032C61.6749 22.8507 62.0269 22.76 62.4162 22.76C62.8055 22.76 63.1549 22.8507 63.4642 23.032C63.7735 23.2133 64.0162 23.4667 64.1922 23.792C64.3682 24.112 64.4562 24.48 64.4562 24.896L64.4482 25.072ZM62.4162 23.248C62.0109 23.248 61.6695 23.3787 61.3922 23.64C61.1202 23.896 60.9655 24.232 60.9282 24.648H63.9122C63.8749 24.232 63.7175 23.896 63.4402 23.64C63.1682 23.3787 62.8269 23.248 62.4162 23.248ZM66.1563 23.616C66.2896 23.3333 66.487 23.12 66.7483 22.976C67.015 22.832 67.343 22.76 67.7323 22.76V23.312L67.5963 23.304C67.1536 23.304 66.807 23.44 66.5563 23.712C66.3056 23.984 66.1803 24.3653 66.1803 24.856V27H65.6123V22.792H66.1563V23.616Z" fill="black"/>
<mask id="path-3-inside-1" fill="white">
<path fill-rule="evenodd" clip-rule="evenodd" d="M65.3812 36.1089C61.9246 33.993 57.1596 33.9038 52.9481 35.8767C49.0512 37.7031 46.2421 41.7273 44.5816 44.7516C43.8342 44.5583 43.0343 44.9352 42.6873 45.7023C42.3552 46.4358 42.5492 47.2868 43.1018 47.7952C42.9503 48.1527 42.8579 48.3928 42.823 48.4863L34.7578 67.274C33.9446 66.8767 32.9758 67.2307 32.5746 68.0878C32.166 68.9608 32.5014 70.0201 33.3245 70.4544L33.3795 70.4835L31.5651 74.7126H27.0565C26.1376 74.7126 25.3918 75.5035 25.3918 76.478C25.3918 77.4526 26.1376 78.2435 27.0565 78.2435H35.3796C36.2985 78.2435 37.0443 77.4526 37.0443 76.478C37.0443 75.5035 36.2985 74.7126 35.3796 74.7126H35.2231L36.3775 72.023C36.5299 72.0698 36.6838 72.1015 36.8378 72.1015C37.4495 72.1015 38.0389 71.7423 38.3302 71.1218C38.7114 70.308 38.44 69.3395 37.7359 68.8593L46.0932 49.3912C46.3188 49.5015 46.5543 49.5563 46.7882 49.5563C47.4082 49.5563 48.0033 49.1873 48.2897 48.5544C48.6708 47.7131 48.3612 46.7156 47.6071 46.2619C49.0312 43.717 51.311 40.5048 54.2948 39.1066C57.5026 37.6034 61.2014 37.6263 63.7174 39.1666C65.5677 40.2992 66.6306 42.1008 66.8785 44.5229C67.343 49.0592 66.9492 52.101 65.7117 53.5654C65.5976 53.7005 65.472 53.8161 65.3438 53.9255V57.8774C66.3692 57.5102 67.3538 56.9109 68.1894 55.9232C70.1137 53.6502 70.767 49.7962 70.1887 44.1424C69.8308 40.639 68.1229 37.786 65.3812 36.1089ZM60.6403 65.8855C61.7265 65.8855 62.7535 66.1476 63.6782 66.6048V58.2888V54.7068V52.6448C63.6782 52.5595 63.6789 52.4823 63.6795 52.4125C63.6824 52.0772 63.6839 51.9128 63.6024 51.833C63.5241 51.7563 63.3691 51.7578 63.065 51.7608C62.9992 51.7614 62.9265 51.7621 62.846 51.7621H59.5858C58.6662 51.7621 49.3899 52.5716 46.9396 65.4176L45.3673 76.0366C45.3673 77.012 46.1123 78.2434 47.0319 78.2434H54.9315C53.9809 76.9449 53.4092 75.3208 53.4092 73.5544C53.4092 69.3253 56.6535 65.8855 60.6403 65.8855ZM63.6784 68.6148C63.9772 68.8222 64.2552 69.0587 64.5107 69.3209C64.8278 69.6467 65.1057 70.0129 65.345 70.4102C65.8885 71.3212 66.2081 72.3973 66.2081 73.5536C66.2081 74.7761 65.8551 75.913 65.2526 76.8567C64.9288 77.3634 64.53 77.8109 64.0773 78.1887C63.5962 78.5903 63.0511 78.9089 62.4617 79.1261C61.89 79.3371 61.279 79.4572 60.6406 79.4572C60.0022 79.4572 59.3912 79.3371 58.8195 79.1261C58.2576 78.9187 57.7375 78.6195 57.273 78.2435C55.9396 77.1647 55.074 75.4664 55.074 73.5545C55.074 70.2991 57.5709 67.6509 60.6405 67.6509C61.7608 67.6509 62.8037 68.0075 63.6784 68.6148ZM63.432 73.5536C63.432 71.9188 62.1819 70.593 60.6404 70.593C59.0982 70.593 57.8489 71.9188 57.8489 73.5536C57.8489 75.1884 59.0989 76.5142 60.6404 76.5142C62.1819 76.5142 63.432 75.1884 63.432 73.5536Z"/>
</mask>
<path fill-rule="evenodd" clip-rule="evenodd" d="M65.3812 36.1089C61.9246 33.993 57.1596 33.9038 52.9481 35.8767C49.0512 37.7031 46.2421 41.7273 44.5816 44.7516C43.8342 44.5583 43.0343 44.9352 42.6873 45.7023C42.3552 46.4358 42.5492 47.2868 43.1018 47.7952C42.9503 48.1527 42.8579 48.3928 42.823 48.4863L34.7578 67.274C33.9446 66.8767 32.9758 67.2307 32.5746 68.0878C32.166 68.9608 32.5014 70.0201 33.3245 70.4544L33.3795 70.4835L31.5651 74.7126H27.0565C26.1376 74.7126 25.3918 75.5035 25.3918 76.478C25.3918 77.4526 26.1376 78.2435 27.0565 78.2435H35.3796C36.2985 78.2435 37.0443 77.4526 37.0443 76.478C37.0443 75.5035 36.2985 74.7126 35.3796 74.7126H35.2231L36.3775 72.023C36.5299 72.0698 36.6838 72.1015 36.8378 72.1015C37.4495 72.1015 38.0389 71.7423 38.3302 71.1218C38.7114 70.308 38.44 69.3395 37.7359 68.8593L46.0932 49.3912C46.3188 49.5015 46.5543 49.5563 46.7882 49.5563C47.4082 49.5563 48.0033 49.1873 48.2897 48.5544C48.6708 47.7131 48.3612 46.7156 47.6071 46.2619C49.0312 43.717 51.311 40.5048 54.2948 39.1066C57.5026 37.6034 61.2014 37.6263 63.7174 39.1666C65.5677 40.2992 66.6306 42.1008 66.8785 44.5229C67.343 49.0592 66.9492 52.101 65.7117 53.5654C65.5976 53.7005 65.472 53.8161 65.3438 53.9255V57.8774C66.3692 57.5102 67.3538 56.9109 68.1894 55.9232C70.1137 53.6502 70.767 49.7962 70.1887 44.1424C69.8308 40.639 68.1229 37.786 65.3812 36.1089ZM60.6403 65.8855C61.7265 65.8855 62.7535 66.1476 63.6782 66.6048V58.2888V54.7068V52.6448C63.6782 52.5595 63.6789 52.4823 63.6795 52.4125C63.6824 52.0772 63.6839 51.9128 63.6024 51.833C63.5241 51.7563 63.3691 51.7578 63.065 51.7608C62.9992 51.7614 62.9265 51.7621 62.846 51.7621H59.5858C58.6662 51.7621 49.3899 52.5716 46.9396 65.4176L45.3673 76.0366C45.3673 77.012 46.1123 78.2434 47.0319 78.2434H54.9315C53.9809 76.9449 53.4092 75.3208 53.4092 73.5544C53.4092 69.3253 56.6535 65.8855 60.6403 65.8855ZM63.6784 68.6148C63.9772 68.8222 64.2552 69.0587 64.5107 69.3209C64.8278 69.6467 65.1057 70.0129 65.345 70.4102C65.8885 71.3212 66.2081 72.3973 66.2081 73.5536C66.2081 74.7761 65.8551 75.913 65.2526 76.8567C64.9288 77.3634 64.53 77.8109 64.0773 78.1887C63.5962 78.5903 63.0511 78.9089 62.4617 79.1261C61.89 79.3371 61.279 79.4572 60.6406 79.4572C60.0022 79.4572 59.3912 79.3371 58.8195 79.1261C58.2576 78.9187 57.7375 78.6195 57.273 78.2435C55.9396 77.1647 55.074 75.4664 55.074 73.5545C55.074 70.2991 57.5709 67.6509 60.6405 67.6509C61.7608 67.6509 62.8037 68.0075 63.6784 68.6148ZM63.432 73.5536C63.432 71.9188 62.1819 70.593 60.6404 70.593C59.0982 70.593 57.8489 71.9188 57.8489 73.5536C57.8489 75.1884 59.0989 76.5142 60.6404 76.5142C62.1819 76.5142 63.432 75.1884 63.432 73.5536Z" fill="url(#paint0_linear)"/>
<path d="M52.9481 35.8767L52.0997 34.0656L52.0994 34.0657L52.9481 35.8767ZM65.3812 36.1089L64.3371 37.8147L64.3375 37.8149L65.3812 36.1089ZM44.5816 44.7516L44.0809 46.6879L45.5864 47.0772L46.3348 45.7141L44.5816 44.7516ZM42.6873 45.7023L44.5093 46.5271L44.5095 46.5266L42.6873 45.7023ZM43.1018 47.7952L44.9434 48.5753L45.4931 47.2776L44.4559 46.3234L43.1018 47.7952ZM42.823 48.4863L44.6608 49.2753L44.6798 49.2309L44.6967 49.1857L42.823 48.4863ZM34.7578 67.274L33.8799 69.071L35.7671 69.993L36.5956 68.0629L34.7578 67.274ZM32.5746 68.0878L34.386 68.9357L34.386 68.9356L32.5746 68.0878ZM33.3245 70.4544L34.2627 68.688L34.2577 68.6854L33.3245 70.4544ZM33.3795 70.4835L35.2175 71.2721L35.9431 69.5806L34.3176 68.7172L33.3795 70.4835ZM31.5651 74.7126V76.7126H32.8834L33.4031 75.5011L31.5651 74.7126ZM35.2231 74.7126L33.3853 73.9238L32.1883 76.7126H35.2231V74.7126ZM36.3775 72.023L36.965 70.1112L35.2481 69.5837L34.5397 71.2342L36.3775 72.023ZM38.3302 71.1218L40.1406 71.9717L40.1413 71.9702L38.3302 71.1218ZM37.7359 68.8593L35.8981 68.0704L35.2484 69.5838L36.6091 70.5117L37.7359 68.8593ZM46.0932 49.3912L46.972 47.5946L45.0844 46.6712L44.2554 48.6022L46.0932 49.3912ZM48.2897 48.5544L46.468 47.729L46.4675 47.73L48.2897 48.5544ZM47.6071 46.2619L45.8618 45.2853L44.9154 46.9766L46.5761 47.9757L47.6071 46.2619ZM54.2948 39.1066L55.1435 40.9176L55.1435 40.9176L54.2948 39.1066ZM63.7174 39.1666L62.6732 40.8724L62.6733 40.8724L63.7174 39.1666ZM66.8785 44.5229L64.8889 44.7266L64.8889 44.7266L66.8785 44.5229ZM65.7117 53.5654L64.1841 52.2745L64.184 52.2746L65.7117 53.5654ZM65.3438 53.9255L64.0457 52.404L63.3438 53.0029V53.9255H65.3438ZM65.3438 57.8774H63.3438V60.718L66.0181 59.7603L65.3438 57.8774ZM68.1894 55.9232L66.663 54.631L66.6626 54.6314L68.1894 55.9232ZM70.1887 44.1424L68.199 44.3456L68.199 44.3459L70.1887 44.1424ZM63.6782 66.6048L62.7918 68.3977L65.6782 69.8248V66.6048H63.6782ZM63.6795 52.4125L65.6794 52.4299L65.6794 52.4299L63.6795 52.4125ZM63.6024 51.833L65.002 50.4044L65.002 50.4044L63.6024 51.833ZM63.065 51.7608L63.0845 53.7607L63.0845 53.7607L63.065 51.7608ZM46.9396 65.4176L44.975 65.0429L44.9672 65.0837L44.9612 65.1247L46.9396 65.4176ZM45.3673 76.0366L43.3889 75.7437L43.3673 75.8894V76.0366H45.3673ZM54.9315 78.2434V80.2434H58.8743L56.5452 77.062L54.9315 78.2434ZM64.5107 69.3209L65.9441 67.9261L65.9429 67.9248L64.5107 69.3209ZM63.6784 68.6148L64.8191 66.972L64.819 66.9719L63.6784 68.6148ZM65.345 70.4102L67.0625 69.3855L67.0583 69.3784L65.345 70.4102ZM65.2526 76.8567L66.9378 77.9337L66.9382 77.9331L65.2526 76.8567ZM64.0773 78.1887L62.7959 76.6531L62.7956 76.6533L64.0773 78.1887ZM62.4617 79.1261L61.7701 77.2495L61.7695 77.2498L62.4617 79.1261ZM58.8195 79.1261L58.1268 81.0024L58.1272 81.0025L58.8195 79.1261ZM57.273 78.2435L58.5314 76.689L58.5309 76.6886L57.273 78.2435ZM53.7965 37.6878C57.5042 35.951 61.5456 36.106 64.3371 37.8147L66.4253 34.4031C62.3036 31.8801 56.815 31.8567 52.0997 34.0656L53.7965 37.6878ZM46.3348 45.7141C47.9527 42.7673 50.5042 39.2308 53.7969 37.6877L52.0994 34.0657C47.5982 36.1753 44.5315 40.6873 42.8285 43.789L46.3348 45.7141ZM44.5095 46.5266C44.4721 46.6093 44.3133 46.748 44.0809 46.6879L45.0824 42.8153C43.3551 42.3686 41.5965 43.261 40.8651 44.8779L44.5095 46.5266ZM44.4559 46.3234C44.502 46.3658 44.5167 46.4054 44.5214 46.4284C44.527 46.4553 44.5255 46.4913 44.5093 46.5271L40.8653 44.8774C40.1734 46.4057 40.5667 48.1805 41.7476 49.267L44.4559 46.3234ZM44.6967 49.1857C44.7212 49.1203 44.8028 48.9071 44.9434 48.5753L41.2602 47.0151C41.0978 47.3984 40.9946 47.6654 40.9493 47.7869L44.6967 49.1857ZM36.5956 68.0629L44.6608 49.2753L40.9852 47.6974L32.92 66.4851L36.5956 68.0629ZM34.386 68.9356C34.3651 68.9803 34.3081 69.0483 34.2065 69.0859C34.1038 69.124 33.9801 69.1199 33.8799 69.071L35.6358 65.477C33.7657 64.5634 31.6129 65.4245 30.7632 67.24L34.386 68.9356ZM34.2577 68.6854C34.3505 68.7344 34.3851 68.8028 34.3943 68.8316C34.4032 68.8598 34.4043 68.8966 34.386 68.9357L30.7632 67.2399C29.9287 69.0226 30.5692 71.2621 32.3914 72.2233L34.2577 68.6854ZM34.3176 68.7172L34.2627 68.688L32.3864 72.2207L32.4413 72.2498L34.3176 68.7172ZM33.4031 75.5011L35.2175 71.2721L31.5415 69.695L29.7271 73.9241L33.4031 75.5011ZM27.0565 76.7126H31.5651V72.7126H27.0565V76.7126ZM27.3918 76.478C27.3918 76.5057 27.3801 76.5538 27.3347 76.602C27.2875 76.652 27.1892 76.7126 27.0565 76.7126V72.7126C24.9239 72.7126 23.3918 74.5114 23.3918 76.478H27.3918ZM27.0565 76.2435C27.1892 76.2435 27.2875 76.304 27.3347 76.3541C27.3801 76.4023 27.3918 76.4504 27.3918 76.478H23.3918C23.3918 78.4447 24.9239 80.2435 27.0565 80.2435V76.2435ZM35.3796 76.2435H27.0565V80.2435H35.3796V76.2435ZM35.0443 76.478C35.0443 76.4504 35.056 76.4023 35.1014 76.3541C35.1486 76.304 35.2469 76.2435 35.3796 76.2435V80.2435C37.5122 80.2435 39.0443 78.4447 39.0443 76.478H35.0443ZM35.3796 76.7126C35.2469 76.7126 35.1486 76.652 35.1014 76.602C35.056 76.5538 35.0443 76.5057 35.0443 76.478H39.0443C39.0443 74.5114 37.5122 72.7126 35.3796 72.7126V76.7126ZM35.2231 76.7126H35.3796V72.7126H35.2231V76.7126ZM34.5397 71.2342L33.3853 73.9238L37.061 75.5014L38.2154 72.8118L34.5397 71.2342ZM36.8378 70.1015C36.898 70.1015 36.9405 70.1077 36.9605 70.1113C36.9799 70.1148 36.983 70.1167 36.965 70.1112L35.7901 73.9348C36.0519 74.0152 36.4149 74.1015 36.8378 74.1015V70.1015ZM36.5198 70.2718C36.5503 70.2067 36.6563 70.1015 36.8378 70.1015V74.1015C38.2428 74.1015 39.5274 73.2778 40.1406 71.9717L36.5198 70.2718ZM36.6091 70.5117C36.5399 70.4646 36.5156 70.4107 36.5082 70.3831C36.5001 70.3527 36.5006 70.3127 36.5191 70.2733L40.1413 71.9702C40.9309 70.2847 40.3928 68.2505 38.8627 67.207L36.6091 70.5117ZM44.2554 48.6022L35.8981 68.0704L39.5737 69.6483L47.9311 50.1801L44.2554 48.6022ZM46.7882 47.5563C46.8716 47.5563 46.9356 47.5767 46.972 47.5946L45.2145 51.1877C45.7019 51.4262 46.237 51.5563 46.7882 51.5563V47.5563ZM46.4675 47.73C46.4969 47.665 46.6033 47.5563 46.7882 47.5563V51.5563C48.2131 51.5563 49.5098 50.7097 50.1119 49.3787L46.4675 47.73ZM46.5761 47.9757C46.4969 47.9281 46.4679 47.8688 46.4593 47.8403C46.4501 47.8098 46.4496 47.7696 46.468 47.729L50.1114 49.3798C50.8981 47.6435 50.2892 45.5415 48.6382 44.5482L46.5761 47.9757ZM53.4461 37.2956C49.8557 38.9781 47.3174 42.684 45.8618 45.2853L49.3524 47.2386C50.7449 44.7501 52.7663 42.0316 55.1435 40.9176L53.4461 37.2956ZM64.7617 37.4609C61.5511 35.4954 57.1214 35.5733 53.4461 37.2956L55.1435 40.9176C57.8838 39.6334 60.8516 39.7572 62.6732 40.8724L64.7617 37.4609ZM68.8681 44.3192C68.5655 41.3636 67.2147 38.9624 64.7616 37.4608L62.6733 40.8724C63.9207 41.636 64.6956 42.838 64.8889 44.7266L68.8681 44.3192ZM67.2393 54.8563C68.2133 53.7037 68.6992 52.1378 68.9169 50.4523C69.1387 48.7345 69.1092 46.6736 68.8681 44.3192L64.8889 44.7266C65.1123 46.9086 65.1181 48.6366 64.9498 49.94C64.7773 51.2755 64.4476 51.9627 64.1841 52.2745L67.2393 54.8563ZM66.6419 55.447C66.8053 55.3076 67.0239 55.1112 67.2394 54.8562L64.184 52.2746C64.1712 52.2897 64.1387 52.3247 64.0457 52.404L66.6419 55.447ZM67.3438 57.8774V53.9255H63.3438V57.8774H67.3438ZM66.6626 54.6314C66.0856 55.3134 65.4127 55.7283 64.6695 55.9945L66.0181 59.7603C67.3257 59.292 68.622 58.5085 69.7163 57.215L66.6626 54.6314ZM68.199 44.3459C68.767 49.8981 68.0276 53.019 66.663 54.631L69.7159 57.2154C72.1999 54.2813 72.767 49.6943 72.1783 43.9389L68.199 44.3459ZM64.3375 37.8149C66.4908 39.1322 67.8977 41.3953 68.199 44.3456L72.1783 43.9392C71.764 39.8827 69.7549 36.4399 66.4249 34.4028L64.3375 37.8149ZM64.5647 64.812C63.3826 64.2276 62.0537 63.8855 60.6403 63.8855V67.8855C61.3992 67.8855 62.1245 68.0677 62.7918 68.3977L64.5647 64.812ZM61.6782 58.2888V66.6048H65.6782V58.2888H61.6782ZM61.6782 54.7068V58.2888H65.6782V54.7068H61.6782ZM61.6782 52.6448V54.7068H65.6782V52.6448H61.6782ZM61.6796 52.3951C61.679 52.4644 61.6782 52.5497 61.6782 52.6448H65.6782C65.6782 52.5693 65.6788 52.5002 65.6794 52.4299L61.6796 52.3951ZM62.2028 53.2617C61.9626 53.0264 61.8322 52.7708 61.7637 52.5771C61.7015 52.4013 61.6866 52.2663 61.6829 52.2294C61.6786 52.1878 61.6798 52.173 61.6803 52.2146C61.6807 52.2541 61.6804 52.3053 61.6796 52.3952L65.6794 52.4299C65.6805 52.3116 65.6857 52.0539 65.6623 51.8245C65.6413 51.6178 65.5632 50.9541 65.002 50.4044L62.2028 53.2617ZM63.0845 53.7607C63.1667 53.7599 63.2108 53.7595 63.2444 53.7599C63.2797 53.7603 63.2604 53.7613 63.2151 53.7567C63.1736 53.7524 63.0401 53.7371 62.8675 53.6767C62.6788 53.6106 62.4327 53.487 62.2028 53.2617L65.002 50.4044C64.4639 49.8772 63.8317 49.7988 63.6217 49.7774C63.3972 49.7544 63.1488 49.7599 63.0455 49.7609L63.0845 53.7607ZM62.846 53.7621C62.9375 53.7621 63.0194 53.7613 63.0845 53.7607L63.0455 49.7609C62.9791 49.7615 62.9154 49.7621 62.846 49.7621V53.7621ZM59.5858 53.7621H62.846V49.7621H59.5858V53.7621ZM48.9042 65.7924C50.0335 59.8717 52.6718 56.9374 54.9382 55.442C56.0991 54.676 57.2159 54.2527 58.0818 54.0218C58.5142 53.9065 58.8793 53.8404 59.149 53.8037C59.2837 53.7853 59.3923 53.7746 59.471 53.7686C59.5541 53.7623 59.5917 53.7621 59.5858 53.7621V49.7621C58.8252 49.7621 55.8708 50.0344 52.7352 52.1033C49.521 54.2241 46.296 58.1176 44.975 65.0429L48.9042 65.7924ZM47.3457 76.3296L48.918 65.7106L44.9612 65.1247L43.3889 75.7437L47.3457 76.3296ZM47.0319 76.2434C47.2632 76.2434 47.4195 76.3231 47.4811 76.3636C47.5356 76.3994 47.5297 76.4109 47.4926 76.3579C47.4581 76.3087 47.4214 76.2383 47.3954 76.1604C47.3687 76.0801 47.3673 76.0345 47.3673 76.0366H43.3673C43.3673 76.979 43.7066 77.9254 44.2169 78.6536C44.7017 79.3454 45.6464 80.2434 47.0319 80.2434V76.2434ZM54.9315 76.2434H47.0319V80.2434H54.9315V76.2434ZM51.4092 73.5544C51.4092 75.7576 52.1234 77.7934 53.3177 79.4248L56.5452 77.062C55.8384 76.0965 55.4092 74.8839 55.4092 73.5544H51.4092ZM60.6403 63.8855C55.44 63.8855 51.4092 68.333 51.4092 73.5544H55.4092C55.4092 70.3177 57.8671 67.8855 60.6403 67.8855V63.8855ZM65.9429 67.9248C65.6008 67.5739 65.2256 67.2542 64.8191 66.972L62.5377 70.2576C62.7287 70.3902 62.9095 70.5435 63.0786 70.7169L65.9429 67.9248ZM67.0583 69.3784C66.7462 68.8602 66.3762 68.3702 65.9441 67.9261L63.0773 70.7157C63.2794 70.9233 63.4652 71.1657 63.6317 71.4421L67.0583 69.3784ZM68.2081 73.5536C68.2081 72.0247 67.7847 70.5959 67.0625 69.3855L63.6274 71.435C63.9922 72.0464 64.2081 72.7699 64.2081 73.5536H68.2081ZM66.9382 77.9331C67.7424 76.6737 68.2081 75.1643 68.2081 73.5536H64.2081C64.2081 74.3879 63.9679 75.1524 63.5669 75.7804L66.9382 77.9331ZM65.3586 79.7243C65.9642 79.219 66.5006 78.6179 66.9378 77.9337L63.5673 75.7798C63.357 76.1089 63.0959 76.4028 62.7959 76.6531L65.3586 79.7243ZM63.1533 81.0028C63.9631 80.7043 64.7068 80.2684 65.3589 79.7242L62.7956 76.6533C62.4856 76.9122 62.139 77.1136 61.7701 77.2495L63.1533 81.0028ZM60.6406 81.4572C61.533 81.4572 62.3779 81.2888 63.1539 81.0025L61.7695 77.2498C61.402 77.3853 61.025 77.4572 60.6406 77.4572V81.4572ZM58.1272 81.0025C58.9033 81.2888 59.7482 81.4572 60.6406 81.4572V77.4572C60.2562 77.4572 59.8791 77.3853 59.5117 77.2498L58.1272 81.0025ZM56.0146 79.798C56.6437 80.3072 57.354 80.7171 58.1268 81.0024L59.5121 77.2499C59.1613 77.1204 58.8313 76.9317 58.5314 76.689L56.0146 79.798ZM53.074 73.5545C53.074 76.0762 54.2171 78.3438 56.0151 79.7984L58.5309 76.6886C57.6621 75.9857 57.074 74.8566 57.074 73.5545H53.074ZM60.6405 65.6509C56.3571 65.6509 53.074 69.3069 53.074 73.5545H57.074C57.074 71.2912 58.7846 69.6509 60.6405 69.6509V65.6509ZM64.819 66.9719C63.6316 66.1475 62.1947 65.6509 60.6405 65.6509V69.6509C61.3269 69.6509 61.9758 69.8675 62.5378 70.2577L64.819 66.9719ZM60.6404 72.593C60.9682 72.593 61.432 72.911 61.432 73.5536H65.432C65.432 70.9265 63.3955 68.593 60.6404 68.593V72.593ZM59.8489 73.5536C59.8489 72.9106 60.3122 72.593 60.6404 72.593V68.593C57.8841 68.593 55.8489 70.927 55.8489 73.5536H59.8489ZM60.6404 74.5142C60.3127 74.5142 59.8489 74.1963 59.8489 73.5536H55.8489C55.8489 76.1805 57.8851 78.5142 60.6404 78.5142V74.5142ZM61.432 73.5536C61.432 74.1962 60.9682 74.5142 60.6404 74.5142V78.5142C63.3956 78.5142 65.432 76.1806 65.432 73.5536H61.432Z" fill="#6CCA93" mask="url(#path-3-inside-1)"/>
<defs>
<filter id="filter0_d" x="0.453125" y="0" width="103.409" height="103" filterUnits="userSpaceOnUse" color-interpolation-filters="sRGB">
<feFlood flood-opacity="0" result="BackgroundImageFix"/>
<feColorMatrix in="SourceAlpha" type="matrix" values="0 0 0 0 0 0 0 0 0 0 0 0 0 0 0 0 0 0 127 0"/>
<feOffset dx="4" dy="4"/>
<feGaussianBlur stdDeviation="5"/>
<feColorMatrix type="matrix" values="0 0 0 0 0 0 0 0 0 0 0 0 0 0 0 0 0 0 0.25 0"/>
<feBlend mode="normal" in2="BackgroundImageFix" result="effect1_dropShadow"/>
<feBlend mode="normal" in="SourceGraphic" in2="effect1_dropShadow" result="shape"/>
</filter>
<linearGradient id="paint0_linear" x1="47.8918" y1="34.4572" x2="47.8918" y2="79.4572" gradientUnits="userSpaceOnUse">
<stop offset="0.333233" stop-color="#6CCA93"/>
<stop offset="0.333333" stop-color="#6CCA93"/>
</linearGradient>
</defs>
</svg>
