<?xml version="1.0" encoding="utf-8"?>
<!-- Generator: Adobe Illustrator 23.0.3, SVG Export Plug-In . SVG Version: 6.00 Build 0)  -->
<svg version="1.1" id="Capa_1" xmlns="http://www.w3.org/2000/svg" xmlns:xlink="http://www.w3.org/1999/xlink" x="0px" y="0px"
	 viewBox="0 0 463 463" style="enable-background:new 0 0 463 463;" xml:space="preserve">
<style type="text/css">
	.st0{fill:#6CCA93;}
</style>
<g>
	<path class="st0" d="M159.5,336c-26.2,0-47.5,21.3-47.5,47.5s21.3,47.5,47.5,47.5s47.5-21.3,47.5-47.5S185.7,336,159.5,336z
		 M159.5,416c-17.9,0-32.5-14.6-32.5-32.5s14.6-32.5,32.5-32.5s32.5,14.6,32.5,32.5S177.4,416,159.5,416z"/>
	<path class="st0" d="M423.5,408H415v-8.5c0-8.5-7-15.5-15.5-15.5H399V271.5C399,121.8,277.2,0,127.5,0H114C51.1,0,0,51.2,0,114
		c0,30.4,11.9,59.1,33.4,80.6l15.2,15.2c-15.5,22-24.6,48.8-24.6,77.7v136c0,13,10.5,23.5,23.5,23.5h64.2c13.3,10,29.9,16,47.8,16
		c43.8,0,79.5-35.7,79.5-79.5c0-17.9-6-34.5-16-47.8V175.5c0-13-10.5-23.5-23.5-23.5h-40c-28.9,0-55.7,9.1-77.7,24.6l-15.2-15.2
		C54,148.7,47,131.9,47,114c0-36.9,30-67,67-67h13.5C251.3,47,352,147.7,352,271.5V384h-0.5c-8.5,0-15.5,7-15.5,15.5v9.7
		c-9.3,3.1-16,11.9-16,22.3v24c0,4.1,3.4,7.5,7.5,7.5h128c4.1,0,7.5-3.4,7.5-7.5v-8C463,425.7,445.3,408,423.5,408z M152,167.2v9.5
		c0,4.2-3.3,7.8-7.8,8.5c-10.2,1.5-20.2,4.7-29.6,9.2c-21,10.1-38.1,27.3-48.2,48.2C59.5,256.8,56,271.9,56,287.5v72
		c0,4.7-3.8,8.5-8.5,8.5H39v-80.5C39,223.6,89,171.1,152,167.2z M39,423.5V415h47.5c2.6,6.1,6,11.8,10.1,17H47.5
		C42.8,432,39,428.2,39,423.5z M159.5,448c-35.6,0-64.5-28.9-64.5-64.5s28.9-64.5,64.5-64.5s64.5,28.9,64.5,64.5
		S195.1,448,159.5,448z M208,175.5v145.1c-13.4-10.4-30.3-16.6-48.5-16.6c-43.8,0-79.5,35.7-79.5,79.5c0,5.7,0.6,11.2,1.7,16.5H39
		v-17h8.5c13,0,23.5-10.5,23.5-23.5v-72c0-13.3,3-26.2,8.9-38.4c8.7-17.9,23.3-32.6,41.3-41.3c8.1-3.9,16.6-6.6,25.3-7.9
		c11.9-1.8,20.5-11.6,20.5-23.3V167h32.5C204.2,167,208,170.8,208,175.5z M114,32c-45.2,0-82,36.8-82,82c0,21.9,8.5,42.5,24,58
		l13.9,13.9c-4.3,3.8-8.3,7.8-12,12L44,184c-18.7-18.7-29-43.5-29-70c0-54.6,44.4-99,99-99h13.5c64,0,122.5,23.5,167.5,62.4
		l-12.1,12.1C241.1,53.7,186.8,32,127.5,32H114z M294,99.6l12-12c4.5,4.4,8.9,9,13.1,13.7l-12,12C302.9,108.5,298.6,104,294,99.6z
		 M316.7,124.9C316.8,124.8,316.8,124.8,316.7,124.9l12.1-12.1c34.5,43.7,55.2,98.9,55.2,158.7V384h-17V271.5
		C367,216.3,348.2,165.4,316.7,124.9z M351.5,399h48c0.3,0,0.5,0.2,0.5,0.5v8.5h-49v-8.5C351,399.2,351.2,399,351.5,399z M448,448
		H335v-16.5c0-4.7,3.8-8.5,8.5-8.5h80c13.5,0,24.5,11,24.5,24.5V448z"/>
</g>
</svg>
