<?xml version="1.0" encoding="utf-8"?>
<!-- Generator: Adobe Illustrator 23.0.3, SVG Export Plug-In . SVG Version: 6.00 Build 0)  -->
<svg version="1.1" id="Capa_1" xmlns="http://www.w3.org/2000/svg" xmlns:xlink="http://www.w3.org/1999/xlink" x="0px" y="0px"
	 viewBox="0 0 424.2 424.2" style="enable-background:new 0 0 424.2 424.2;" xml:space="preserve">
<style type="text/css">
	.st0{fill:#6CCA93;}
</style>
<g>
	<path class="st0" d="M360.1,0h-296c-17.6,0-32,14.4-32,32v384.2c0,4.4,3.6,8,8,8h344c4.4,0,8-3.6,8-8V32
		C392.1,14.4,377.7,0,360.1,0z M48.1,408.2V80h272.2c4.4,0,8-3.6,8-8s-3.6-8-8-8H48.1V32c0-8.8,7.2-16,16-16h296c8.8,0,16,7.2,16,16
		v32h-23.8c-4.4,0-8,3.6-8,8s3.6,8,8,8h23.8v328.2H48.1z"/>
	<path class="st0" d="M212.1,112c-73,0-132.3,59.4-132.3,132.3s59.4,132.3,132.3,132.3c73,0,132.3-59.4,132.3-132.3
		S285,112,212.1,112z M212.1,360.7c-64.1,0-116.3-52.2-116.3-116.3S147.9,128,212.1,128c48.7,0,90.5,30.1,107.8,72.7h-7.3
		c-3.4,0-6.7,0.5-9.8,1.5c-16.3-34.9-51.6-57.9-90.7-57.9c-55.1,0-100,44.9-100,100s44.9,100,100,100c39.1,0,74.4-22.9,90.7-57.9
		c3.1,1,6.4,1.5,9.8,1.5h7.3C302.6,330.6,260.8,360.7,212.1,360.7z M303.7,269.3c-0.2-0.1-0.3-0.2-0.5-0.4c-4-2.9-6.6-7.6-6.6-12.9
		v-23.3c0-5.3,2.6-10,6.6-12.9c0.2-0.1,0.3-0.2,0.5-0.4c2.5-1.7,5.6-2.7,8.9-2.7h12.5c2.2,8.9,3.3,18.1,3.3,27.7s-1.2,18.8-3.3,27.7
		h-12.5C309.3,272,306.2,271,303.7,269.3z M289.1,277.8c-13.2,30.5-43.5,50.6-77.1,50.6c-46.3,0-84-37.7-84-84s37.7-84,84-84
		c33.5,0,63.8,20.1,77.1,50.6c-5.3,5.7-8.6,13.4-8.6,21.8V256C280.6,264.4,283.8,272,289.1,277.8z"/>
	<path class="st0" d="M344.1,40.1c0-8.8-7.1-15.9-15.9-15.9s-15.9,7.1-15.9,15.9S319.4,56,328.2,56S344.1,48.9,344.1,40.1z"/>
	<path class="st0" d="M280.5,24.2c-8.8,0-15.9,7.1-15.9,15.9S271.7,56,280.5,56s15.9-7.1,15.9-15.9S289.3,24.2,280.5,24.2z"/>
	<path class="st0" d="M152.4,32.1h-72c-4.4,0-8,3.6-8,8s3.6,8,8,8h72c4.4,0,8-3.6,8-8S156.8,32.1,152.4,32.1z"/>
	<path class="st0" d="M199.8,32.1h-15.4c-4.4,0-8,3.6-8,8s3.6,8,8,8h15.4c4.4,0,8-3.6,8-8S204.2,32.1,199.8,32.1z"/>
	<path class="st0" d="M212.1,176c-37.7,0-68.3,30.7-68.3,68.3c0,4.4,3.6,8,8,8s8-3.6,8-8c0-28.9,23.5-52.3,52.3-52.3
		c4.4,0,8-3.6,8-8S216.5,176,212.1,176z"/>
</g>
</svg>
